# xmcd CD database file
#
# Track frame offsets:
#	150
#	14735
#	29735
#	44480
#	62292
#	81625
#	96745
#	112552
#	127957
#	145745
#	162695
#	186305
#
# Disc length: 2657 seconds
#
# Revision: 0
# Processed by: cddbd v1.5PL3 Copyright (c) Steve Scherf et al.
# Submitted via: CDex 1.40Release
#
DISCID=ae0a5f0c
DTITLE=Darwin's Waiting Room - Orphan
DYEAR=1900
DGENRE=Rock
TTITLE0=Feel So Stupid (Table 9)
TTITLE1=Live For The Moment
TTITLE2=Sometime It Happens Like This
TTITLE3=In To The Dark
TTITLE4=Another Way
TTITLE5=Spent
TTITLE6=D.I.Y.M.
TTITLE7=Realize
TTITLE8=Innosense feat.Shaggy
TTITLE9=Transparent
TTITLE10=All I Have Is Me
TTITLE11=Back That Azz Up cover,Juvenile
EXTD=ID3G: 17
EXTT0=
EXTT1=
EXTT2=
EXTT3=
EXTT4=
EXTT5=
EXTT6=
EXTT7=
EXTT8=
EXTT9=
EXTT10=
EXTT11=
PLAYORDER=
